<?xml version="1.0" standalone="no"?>
<!DOCTYPE svg PUBLIC "-//W3C//DTD SVG 20010904//EN"
 "http://www.w3.org/TR/2001/REC-SVG-20010904/DTD/svg10.dtd">
<svg version="1.0" xmlns="http://www.w3.org/2000/svg"
 width="500.000000pt" height="500.000000pt" viewBox="0 0 500.000000 500.000000"
 preserveAspectRatio="xMidYMid meet">

<g transform="translate(0.000000,500.000000) scale(0.100000,-0.100000)"
fill="#000000" stroke="none">
<path d="M1035 3174 c-110 -96 -212 -183 -226 -194 l-26 -19 -41 34 c-22 19
-42 35 -45 35 -6 0 -507 -557 -507 -564 0 -3 17 -6 38 -6 34 0 46 8 122 85
l85 86 5 -40 5 -39 110 125 c121 137 131 146 122 114 -5 -19 -1 -18 31 11 215
192 481 411 490 403 2 -2 -19 -43 -47 -91 -27 -49 -48 -90 -47 -91 1 -2 28 11
60 28 l58 31 -36 -47 c-45 -59 -47 -97 -7 -151 27 -38 101 -113 101 -103 0 2
-4 19 -9 36 l-9 32 51 -27 c46 -24 63 -27 139 -26 49 0 91 4 94 7 4 4 -13 32
-36 64 -24 32 -55 73 -68 91 -13 17 -22 32 -20 32 3 0 54 -36 114 -80 l108
-80 14 25 c7 14 15 25 18 25 5 0 202 -179 417 -379 l39 -36 -17 40 c-9 22 -19
46 -22 53 -9 21 6 14 81 -43 41 -31 83 -55 97 -55 19 0 -32 56 -261 285 l-285
285 -87 0 -86 0 -154 160 c-85 88 -156 160 -159 159 -2 0 -94 -79 -204 -175z"/>
<path d="M2310 2925 l0 -395 35 0 35 0 0 185 0 185 208 -2 207 -3 3 -182 2
-183 35 0 35 0 0 395 0 395 -35 0 -35 0 -2 -182 -3 -183 -207 -3 -208 -2 0
185 0 185 -35 0 -35 0 0 -395z"/>
<path d="M3486 3068 c-20 -95 -39 -181 -42 -190 -4 -13 0 -18 15 -18 16 0 22
12 36 78 10 42 22 100 29 127 l12 50 51 -128 c28 -70 54 -129 58 -130 3 -1 28
53 54 120 26 68 50 125 53 128 2 3 10 -21 17 -52 42 -195 42 -193 63 -193 12
0 18 5 15 13 -2 6 -21 92 -42 190 -21 98 -42 172 -46 165 -4 -7 -30 -74 -59
-148 -28 -74 -52 -136 -54 -137 -2 -2 -25 54 -51 124 -74 199 -65 199 -109 1z"/>
<path d="M3095 3217 c-131 -61 -153 -236 -40 -323 48 -37 141 -45 194 -17 90
47 127 162 82 251 -41 81 -158 124 -236 89z m157 -53 c114 -84 58 -268 -81
-268 -89 1 -151 60 -151 145 0 53 27 101 72 130 41 25 122 22 160 -7z"/>
<path d="M3950 3040 l0 -180 110 0 c91 0 110 3 110 15 0 12 -17 15 -90 15
l-90 0 0 65 0 65 85 0 c78 0 85 2 85 20 0 18 -7 20 -85 20 l-85 0 0 65 0 65
90 0 c73 0 90 3 90 15 0 12 -19 15 -110 15 l-110 0 0 -180z"/>
<path d="M4310 3040 l0 -180 80 0 c73 0 80 2 80 20 0 18 -7 20 -65 20 l-65 0
0 160 c0 136 -2 160 -15 160 -13 0 -15 -27 -15 -180z"/>
<path d="M4583 3173 c105 -146 97 -128 97 -225 0 -81 2 -88 20 -88 18 0 20 7
20 86 l0 85 66 92 c61 85 64 92 43 95 -12 2 -26 -2 -30 -10 -4 -7 -28 -41 -52
-76 l-45 -63 -53 75 c-41 59 -58 76 -77 76 -24 0 -24 0 11 -47z"/>
<path d="M660 2704 l-315 -293 -172 -1 c-147 0 -173 -2 -173 -15 0 -13 33 -15
241 -15 l241 0 192 177 c105 98 216 201 247 230 l55 53 249 -230 249 -230 86
0 85 0 -90 84 -90 84 80 74 c44 41 99 91 121 111 l42 37 208 -195 209 -194
343 -1 c297 0 342 2 342 15 0 13 -44 15 -332 15 l-333 0 -215 200 c-118 109
-222 199 -230 199 -8 0 -100 -26 -205 -58 l-190 -58 -135 125 c-74 69 -148
138 -165 153 l-30 27 -315 -294z"/>
<path d="M910 2726 c-36 -34 -112 -106 -170 -160 -105 -98 -105 -98 48 30 203
171 188 161 215 137 12 -11 83 -70 157 -132 l135 -112 -105 101 c-58 55 -130
123 -160 150 l-56 48 -64 -62z"/>
<path d="M1640 2657 c-68 -64 -66 -65 11 -4 25 20 50 37 54 37 4 0 49 -35 99
-77 103 -87 89 -65 -24 37 l-75 68 -65 -61z"/>
<path d="M3067 2582 c-21 -55 -37 -102 -37 -105 0 -17 22 -4 30 18 8 22 16 25
55 25 39 0 47 -3 55 -25 9 -25 36 -37 28 -12 -46 129 -75 197 -84 197 -6 0
-27 -44 -47 -98z m77 -19 c7 -21 4 -23 -28 -23 -42 0 -41 0 -19 59 l17 45 12
-30 c6 -16 15 -39 18 -51z"/>
<path d="M3342 2669 c48 -136 74 -199 83 -199 12 0 89 200 80 208 -10 10 -21
-12 -50 -91 -15 -43 -29 -76 -31 -75 -1 2 -16 39 -32 83 -16 43 -35 81 -42 83
-8 3 -11 -1 -8 -9z"/>
<path d="M3670 2575 l0 -105 70 0 c40 0 70 4 70 10 0 6 -25 10 -55 10 l-55 0
0 40 0 40 51 0 c31 0 48 4 44 10 -3 6 -26 10 -51 10 -44 0 -44 0 -44 35 l0 35
55 0 c30 0 55 5 55 10 0 6 -30 10 -70 10 l-70 0 0 -105z"/>
<path d="M3970 2575 c0 -87 3 -105 15 -105 12 0 15 17 16 88 l0 87 45 -87 c61
-121 74 -118 74 17 0 128 -18 142 -22 18 l-3 -88 -42 88 c-32 68 -46 87 -62
87 -20 0 -21 -6 -21 -105z"/>
<path d="M904 2606 c-12 -31 0 -51 31 -51 27 0 30 3 30 30 0 25 -4 30 -28 33
-17 2 -29 -2 -33 -12z"/>
<path d="M984 2606 c-12 -31 0 -51 31 -51 27 0 30 3 30 30 0 25 -4 30 -28 33
-17 2 -29 -2 -33 -12z"/>
<path d="M1660 2570 c0 -13 7 -20 20 -20 13 0 20 7 20 20 0 13 -7 20 -20 20
-13 0 -20 -7 -20 -20z"/>
<path d="M1710 2570 c0 -15 7 -20 25 -20 18 0 25 5 25 20 0 15 -7 20 -25 20
-18 0 -25 -5 -25 -20z"/>
<path d="M902 2503 c2 -23 8 -29 36 -31 30 -3 32 -1 32 27 0 29 -3 31 -36 31
-33 0 -35 -2 -32 -27z"/>
<path d="M980 2499 c0 -28 2 -30 33 -27 27 2 33 8 35 31 3 25 1 27 -32 27 -33
0 -36 -2 -36 -31z"/>
<path d="M1660 2510 c0 -13 7 -20 20 -20 13 0 20 7 20 20 0 13 -7 20 -20 20
-13 0 -20 -7 -20 -20z"/>
<path d="M1710 2509 c0 -15 5 -20 22 -17 34 5 37 38 4 38 -20 0 -26 -5 -26
-21z"/>
<path d="M1925 2510 c10 -11 20 -20 23 -20 3 0 -3 9 -13 20 -10 11 -20 20 -23
20 -3 0 3 -9 13 -20z"/>
<path d="M1310 2476 c0 -2 8 -10 18 -17 15 -13 16 -12 3 4 -13 16 -21 21 -21
13z"/>
</g>
</svg>
